<?xml version="1.0" standalone="no"?><!DOCTYPE svg PUBLIC "-//W3C//DTD SVG 1.1//EN" "http://www.w3.org/Graphics/SVG/1.1/DTD/svg11.dtd"><svg t="1706694259960" class="icon" viewBox="0 0 1024 1024" version="1.1" xmlns="http://www.w3.org/2000/svg" p-id="45381" xmlns:xlink="http://www.w3.org/1999/xlink" width="32" height="32"><path d="M512 896a384 384 0 1 1 0-768 384 384 0 0 1 0 768z m0 64a448 448 0 1 0 0-896 448 448 0 0 0 0 896z" p-id="45382"></path><path d="M99.0208 544a7.9872 7.9872 0 0 1-8.0384-7.9872V487.936a7.9872 7.9872 0 0 1 8.0384-7.9872h289.792a7.9872 7.9872 0 0 1 7.9872 7.9872v48.0256a7.9872 7.9872 0 0 1-7.9872 7.9872h-289.792z m536.1664 0a7.9872 7.9872 0 0 1-7.9872-7.9872V487.936a7.9872 7.9872 0 0 1 7.9872-7.9872h289.792a7.9872 7.9872 0 0 1 8.0384 7.9872v48.0256a7.9872 7.9872 0 0 1-8.0384 7.9872h-289.792z" p-id="45383"></path><path d="M393.9328 541.44a5.9904 5.9904 0 0 1-5.12 1.2288 9.6768 9.6768 0 0 1-5.376-3.1744l-33.1264-37.888a9.6768 9.6768 0 0 1-2.4576-5.7344 5.9904 5.9904 0 0 1 1.8944-4.9152l180.2752-157.696a5.9904 5.9904 0 0 1 5.12-1.2288c2.048 0.4096 3.9424 1.536 5.376 3.2256l33.1776 37.888a9.6768 9.6768 0 0 1 2.4064 5.7344 5.9904 5.9904 0 0 1-1.8944 4.9152l-180.224 157.696z" p-id="45384"></path></svg>