<?xml version="1.0" standalone="no"?><!DOCTYPE svg PUBLIC "-//W3C//DTD SVG 1.1//EN" "http://www.w3.org/Graphics/SVG/1.1/DTD/svg11.dtd"><svg t="1706694571089" class="icon" viewBox="0 0 1024 1024" version="1.1" xmlns="http://www.w3.org/2000/svg" p-id="55685" xmlns:xlink="http://www.w3.org/1999/xlink" width="32" height="32"><path d="M301.159 180.76h0.03q9.394 0 9.394 9.393v41.487q0 9.393-9.393 9.393h-0.031q-9.394 0-9.394-9.393v-41.487q0-9.394 9.394-9.394zM225.949 481.628h0.031q9.394 0 9.394 9.394v56.422q0 9.394-9.394 9.394h-0.03q-9.394 0-9.394-9.394v-56.422q0-9.394 9.393-9.394zM722.387 180.76h0.032q9.393 0 9.393 9.393v41.487q0 9.393-9.393 9.393h-0.032q-9.393 0-9.393-9.393v-41.487q0-9.394 9.393-9.394zM805.143 481.628h0.031q9.394 0 9.394 9.394v56.422q0 9.394-9.394 9.394h-0.031q-9.393 0-9.393-9.394v-56.422q0-9.394 9.393-9.394z" fill="#2C2C2C" p-id="55686"></path><path d="M749.816 189.025H284.595a13.683 13.683 0 0 1-12.525-8.11 21.198 21.198 0 0 1 0-18.942L413.44 4.916A13.339 13.339 0 0 1 423.742 0.03h166.262a15.656 15.656 0 0 1 9.738 3.789l159.687 161.409a13.307 13.307 0 0 1 2.724 14.622 13.15 13.15 0 0 1-12.337 9.174z m-435.444-27.084h403.507L584.649 27.616H429.754z" fill="#2C2C2C" p-id="55687"></path><path d="M824.869 518.763H191.006c-5.95 0-3.35-4.415-5.51-9.831-1.63-5.417 0.625-0.188 5.51-4.008l308.133-236.337L386.95 195.32a13.464 13.464 0 0 1 8.11-24.36h228.007a13.464 13.464 0 0 1 8.11 24.36l-105.393 73.268 308.509 222.31c4.884 3.13 14.622 12.524 12.994 17.878s-16.47 9.988-22.42 9.988z m-603.366-22.168h586.05L511.57 279.108z m195.413-298.52l94.622 61.745 91.867-61.746z" fill="#2C2C2C" p-id="55688"></path><path d="M395.092 198.043a14.121 14.121 0 0 1-11.366-5.95c-4.32-6.512-0.532-7.044 5.417-11.396l105.518-71.484-107.146-69.01c-6.482-4.32-10.834-8.892-6.513-15.405s7.577-4.32 14.09 0l114.286 77.214 115.35-77.214c4.32-2.692 5.95-7.577 10.301-5.416a14.31 14.31 0 0 1 7.045 12.524l-5.416 153.425a12.243 12.243 0 0 1-7.578 11.366c-4.32 2.16-4.32-5.198-8.11-7.922l-111.561-68.54-114.286 76.462c-2.724 1.346 2.693 1.346-0.031 1.346z m131.507-88.83l85.792 56.36V51.663zM382.755 496.47a13.464 13.464 0 0 1-11.93-7.045c-3.788-6.513-1.878 0 4.604-3.695l125.244-68.352-96.344-54.951c-6.513-3.132-22.2-5.135-18.411-11.648a13.401 13.401 0 0 1 18.41-5.417l106.459 57.3 99.757-57.3a16 16 0 0 1 14.059 0 13.996 13.996 0 0 1 7.045 10.301l17.878 126.184a13.495 13.495 0 0 1-19.506 14.09l-119.233-65.22-121.77 64.156a14.434 14.434 0 0 1-6.387 1.597z m137.425-81.785l111.687 67.162-21.104-119.42z" fill="#2C2C2C" p-id="55689"></path><path d="M347.593 969.3c-1.91 0-62.31-9.018-64.22-10.114-4.289-2.724-19.944-8.11-19.475-13.527l133.323-599.201V23.138a14.059 14.059 0 0 1 3.35-9.737 13.495 13.495 0 0 1 8.58-4.32l181.604 4.32a479.06 479.06 0 0 1 35.977 46.591c2.38 2.693-6.732-19.1-6.732-15.311v301.808l73.018 306.85c0 1.095-14.122-19.633-14.122-19.1l14.122 26.301 70.23 305.628c0.47 5.417-65.94-1.096-70.23 1.628a11.147 11.147 0 0 1-13.37-1.095L514.982 821.417l-159.906 144.72a10.928 10.928 0 0 1-7.483 3.162z m40.11-270.81l-29.089 247.17 144.032-143.124z m141.933 104.015l146.16 139.021-33.784-247.89z m-137.77-123.523l123.367 102.263 120.83-102.263-123.836-92.587z m17.097-172.775l-17.096 154.177 110.998-86.732z m113.597 67.445l113.503 86.732-39.672-311.797v-2.16l8.58-311.421-183.766 1.096 4.76 310.888v1.628l-14.31 133.23c3.35-1.629-2.849 6.982 0 9.675l100.572 69.823 93.714-69.73c5.26-4.32 3.131-10.238 7.014-4.258a15.03 15.03 0 0 1-2.85 18.943z" fill="#2C2C2C" p-id="55690"></path><path d="M955.656 988.775H113.04a13.526 13.526 0 1 1 0-27.084h842.74a13.526 13.526 0 1 1 0 27.084z" fill="#2C2C2C" p-id="55691"></path><path d="M68.14 945.91h887.735a36.978 36.978 0 0 1 0 73.988H68.14a36.978 36.978 0 0 1 0-73.988z" fill="#2C2C2C" p-id="55692"></path></svg>