<?xml version="1.0" standalone="no"?><!DOCTYPE svg PUBLIC "-//W3C//DTD SVG 1.1//EN" "http://www.w3.org/Graphics/SVG/1.1/DTD/svg11.dtd"><svg t="1706695528991" class="icon" viewBox="0 0 1024 1024" version="1.1" xmlns="http://www.w3.org/2000/svg" p-id="60893" xmlns:xlink="http://www.w3.org/1999/xlink" width="32" height="32"><path d="M759.714909 181.899636H570.368c-10.24 0-18.618182-8.378182-18.618182-18.618181s8.378182-18.618182 18.618182-18.618182h189.44c10.24 0 18.618182 8.378182 18.618182 18.618182s-8.378182 18.618182-18.711273 18.618181z" fill="#5B606A" p-id="60894"></path><path d="M763.252364 869.376c-10.24 0-18.618182-8.378182-18.618182-18.618182V166.818909c0-10.24 8.378182-18.618182 18.618182-18.618182s18.618182 8.378182 18.618181 18.618182V850.850909c0 10.24-8.378182 18.525091-18.618181 18.525091zM154.903273 181.899636H23.738182c-10.24 0-18.618182-8.378182-18.618182-18.618181s8.378182-18.618182 18.618182-18.618182h131.165091c10.24 0 18.618182 8.378182 18.618182 18.618182s-8.378182 18.618182-18.618182 18.618181z" fill="#5B606A" p-id="60895"></path><path d="M759.714909 531.083636H570.368c-10.24 0-18.618182-8.378182-18.618182-18.618181s8.378182-18.618182 18.618182-18.618182h189.44c10.24 0 18.618182 8.378182 18.618182 18.618182s-8.378182 18.618182-18.711273 18.618181zM154.903273 531.083636H23.738182c-10.24 0-18.618182-8.378182-18.618182-18.618181s8.378182-18.618182 18.618182-18.618182h131.165091c10.24 0 18.618182 8.378182 18.618182 18.618182s-8.378182 18.618182-18.618182 18.618181zM759.714909 869.282909H570.368c-10.24 0-18.618182-8.378182-18.618182-18.618182s8.378182-18.618182 18.618182-18.618182h189.44c10.24 0 18.618182 8.378182 18.618182 18.618182s-8.378182 18.618182-18.711273 18.618182zM154.903273 869.282909H23.738182c-10.24 0-18.618182-8.378182-18.618182-18.618182s8.378182-18.618182 18.618182-18.618182h131.165091c10.24 0 18.618182 8.378182 18.618182 18.618182s-8.378182 18.618182-18.618182 18.618182zM1002.775273 356.445091H765.765818c-10.24 0-18.618182-8.378182-18.618182-18.618182s8.378182-18.618182 18.618182-18.618182h237.102546c10.24 0 18.618182 8.378182 18.618181 18.618182s-8.378182 18.618182-18.711272 18.618182zM1002.775273 694.737455H765.765818c-10.24 0-18.618182-8.378182-18.618182-18.618182s8.378182-18.618182 18.618182-18.618182h237.102546c10.24 0 18.618182 8.378182 18.618181 18.618182s-8.378182 18.618182-18.711272 18.618182z" fill="#5B606A" p-id="60896"></path><path d="M566.365091 283.927273H169.425455c-10.24 0-18.618182-8.378182-18.618182-18.618182V65.163636c0-10.24 8.378182-18.618182 18.618182-18.618181h396.846545c10.24 0 18.618182 8.378182 18.618182 18.618181v200.145455c0.093091 10.333091-8.285091 18.618182-18.525091 18.618182z m-378.321455-37.236364h359.610182V83.781818H188.043636v162.909091zM566.365091 633.111273H169.425455c-10.24 0-18.618182-8.378182-18.618182-18.618182v-200.145455c0-10.24 8.378182-18.618182 18.618182-18.618181h396.846545c10.24 0 18.618182 8.378182 18.618182 18.618181v200.145455c0.093091 10.24-8.285091 18.618182-18.525091 18.618182z m-378.321455-37.236364h359.610182v-162.909091H188.043636v162.909091zM566.365091 971.403636H169.425455c-10.24 0-18.618182-8.378182-18.618182-18.618181v-200.145455c0-10.24 8.378182-18.618182 18.618182-18.618182h396.846545c10.24 0 18.618182 8.378182 18.618182 18.618182v200.145455c0.093091 10.24-8.285091 18.618182-18.525091 18.618181z m-378.321455-37.236363h359.610182v-162.909091H188.043636v162.909091z" fill="#ED925B" p-id="60897"></path></svg>