<?xml version="1.0" standalone="no"?><!DOCTYPE svg PUBLIC "-//W3C//DTD SVG 1.1//EN" "http://www.w3.org/Graphics/SVG/1.1/DTD/svg11.dtd"><svg t="1706695507470" class="icon" viewBox="0 0 1024 1024" version="1.1" xmlns="http://www.w3.org/2000/svg" p-id="59904" xmlns:xlink="http://www.w3.org/1999/xlink" width="32" height="32"><path d="M970.879725 99.778856H948.383198a38.647255 38.647255 0 0 1-38.647255-38.647255V38.647255A38.647255 38.647255 0 0 0 871.100869 0h-720.936341a38.647255 38.647255 0 0 0-38.647254 38.647255v22.484346a38.647255 38.647255 0 0 1-38.647255 38.647255H50.385672A38.647255 38.647255 0 0 0 11.738418 138.426111v745.296413a38.647255 38.647255 0 0 0 38.647254 38.647254h22.484347a38.647255 38.647255 0 0 1 38.647255 38.647255v22.496527a38.647255 38.647255 0 0 0 38.647254 38.647255h720.936341a38.647255 38.647255 0 0 0 38.647255-38.647255v-22.496527A38.647255 38.647255 0 0 1 948.383198 922.369778h22.484347a38.647255 38.647255 0 0 0 38.647255-38.647254v-745.296413a38.647255 38.647255 0 0 0-38.635075-38.647255z m-61.131601 138.426111v645.541917a38.647255 38.647255 0 0 1-38.647255 38.647254h-720.936341a38.647255 38.647255 0 0 1-38.647254-38.647254V199.557712h798.23085z" p-id="59905"></path><path d="M909.748124 238.204967v-38.647255h-38.647255a38.647255 38.647255 0 0 1 38.647255 38.647255z" p-id="59906"></path><path d="M354.728236 841.884099v6.236179a62.191265 62.191265 0 0 0 6.236178 24.944714c6.236179 6.236179 12.472357 6.236179 18.708536 6.236178s12.472357 0 18.708535-6.236178c0 0 6.236179 0 6.236179-6.236179l125.174232-129.729565H391.755546zM753.843661 486.421924c0-6.236179-6.236179-12.472357-24.944714-12.472357H579.230662l37.417071-193.321534c0-12.472357 0-18.708536-6.236178-31.180892-6.236179-6.236179-12.472357-12.472357-24.944714-12.472357-6.236179 0-12.472357 6.236179-18.708536 6.236178 0 0-6.236179 0-6.236178 6.236179L273.609195 592.436959c-6.236179 6.236179-6.236179 18.708536 0 24.944714 0 6.236179 12.472357 12.472357 24.944714 12.472357H429.513658l-37.843373 107.184318h138.121611l217.815586-225.67171c6.236179 0 12.472357-12.472357 6.236179-24.944714z" p-id="59907"></path></svg>